<svg width="380" height="280" viewBox="0 0 380 280" fill="none" xmlns="http://www.w3.org/2000/svg">
<path d="M187.524 270.811C188.612 274.322 187.597 278.153 185.427 278.825C183.258 279.497 181.189 278.551 180.101 275.039C179.012 271.527 179.863 269.725 182.032 269.053C184.202 268.381 186.436 267.299 187.524 270.811Z" fill="#2972FE" fill-opacity="0.2"/>
<path d="M326.475 262.173C321.463 266.719 314.284 268.002 311.475 264.905C308.667 261.808 308.639 257.621 313.651 253.076C318.663 248.531 322.33 248.548 325.138 251.645C327.947 254.742 331.487 257.628 326.475 262.173Z" fill="#2972FE" fill-opacity="0.2"/>
<path d="M80.7153 255.274C73.7657 261.576 61.7006 261.028 55.528 254.221C49.3554 247.414 47.6151 239.733 54.5648 233.431C61.5144 227.129 67.9487 228.642 74.1214 235.448C80.294 242.255 87.665 248.971 80.7153 255.274Z" fill="#2972FE" fill-opacity="0.2"/>
<path d="M108.98 150.772C110.068 154.284 109.052 158.114 106.883 158.786C104.713 159.459 102.644 158.512 101.556 155C100.468 151.489 101.318 149.687 103.488 149.014C105.657 148.342 107.891 147.26 108.98 150.772Z" fill="#2972FE" fill-opacity="0.2"/>
<path d="M299.886 92.0622C299.128 82.4801 307.182 73.0356 316.625 72.2882C326.068 71.5407 333.43 74.936 334.189 84.5181C334.947 94.1001 329.657 98.3731 320.213 99.1206C310.77 99.8681 300.645 101.644 299.886 92.0622Z" fill="#2972FE" fill-opacity="0.6"/>
<rect x="131" y="81" width="117" height="117" rx="58.5" fill="url(#paint0_linear_3049_198128)"/>
<mask id="mask0_3049_198128" style="mask-type:alpha" maskUnits="userSpaceOnUse" x="164" y="114" width="51" height="51">
<path fill-rule="evenodd" clip-rule="evenodd" d="M164.084 139.5C164.084 125.47 175.445 114.083 189.475 114.083C203.53 114.083 214.917 125.47 214.917 139.5C214.917 153.53 203.53 164.917 189.475 164.917C175.445 164.917 164.084 153.53 164.084 139.5ZM180.604 129.333C178.499 129.333 176.792 131.04 176.792 133.146C176.792 135.251 178.499 136.958 180.604 136.958C182.71 136.958 184.417 135.251 184.417 133.146C184.417 131.04 182.71 129.333 180.604 129.333ZM198.396 129.333C196.291 129.333 194.584 131.04 194.584 133.146C194.584 135.251 196.291 136.958 198.396 136.958C200.502 136.958 202.209 135.251 202.209 133.146C202.209 131.04 200.502 129.333 198.396 129.333ZM189.5 159.833C178.266 159.833 169.167 150.734 169.167 139.5C169.167 128.266 178.266 119.167 189.5 119.167C200.735 119.167 209.834 128.266 209.834 139.5C209.834 150.734 200.735 159.833 189.5 159.833ZM177.681 151.141C180.274 147.049 184.671 144.584 189.5 144.584C194.329 144.584 198.726 147.024 201.344 151.141C201.904 152.031 201.624 153.2 200.734 153.759C200.404 153.937 200.074 154.039 199.718 154.039C199.082 154.039 198.447 153.734 198.091 153.149C196.21 150.15 193.008 148.371 189.5 148.371C185.993 148.371 182.79 150.15 180.909 153.149C180.35 154.039 179.181 154.318 178.291 153.759C177.402 153.2 177.122 152.031 177.681 151.141Z" fill="black"/>
</mask>
<g mask="url(#mask0_3049_198128)">
<rect x="159" y="109" width="61" height="61" fill="white"/>
</g>
<path d="M61.5668 73.3131C59.654 75.3494 55.1873 72.8893 52.8719 70.5738C50.5564 68.2584 47.6264 63.6987 51.0005 60.3247C54.3745 56.9507 58.8908 61.6201 61.2062 63.9355C63.5217 66.251 63.4795 71.2769 61.5668 73.3131Z" fill="#2972FE" fill-opacity="0.5"/>
<path d="M155.145 32.9323C150.133 37.4775 142.954 38.7607 140.145 35.6638C137.337 32.567 137.309 28.3801 142.321 23.8348C147.333 19.2896 151 19.3071 153.808 22.404C156.617 25.5009 160.157 28.387 155.145 32.9323Z" fill="#2972FE" fill-opacity="0.2"/>
<path d="M243.956 3.04074C244.86 6.41258 242.607 10.3171 239.284 11.2075C235.961 12.0979 233.108 11.3714 232.204 7.99958C231.301 4.62773 232.908 2.75247 236.231 1.86208C239.554 0.971677 243.053 -0.331113 243.956 3.04074Z" fill="#2972FE" fill-opacity="0.1"/>
<defs>
<linearGradient id="paint0_linear_3049_198128" x1="248" y1="198.284" x2="131" y2="81.2842" gradientUnits="userSpaceOnUse">
<stop stop-color="#2972FE"/>
<stop offset="1" stop-color="#6499FF"/>
</linearGradient>
</defs>
</svg>
